<?xml version="1.0" standalone="no"?>
<!DOCTYPE svg PUBLIC "-//W3C//DTD SVG 20010904//EN"
 "http://www.w3.org/TR/2001/REC-SVG-20010904/DTD/svg10.dtd">
<svg version="1.0" xmlns="http://www.w3.org/2000/svg"
 width="700.000000pt" height="700.000000pt" viewBox="0 0 700.000000 700.000000"
 preserveAspectRatio="xMidYMid meet">

<g transform="translate(0.000000,700.000000) scale(0.100000,-0.100000)"
fill="#000000" stroke="none">
<path d="M4620 6816 c-164 -46 -299 -162 -370 -320 -27 -59 -34 -67 -53 -62
-121 30 -482 31 -682 2 -347 -51 -729 -188 -1011 -363 l-80 -50 -35 30 c-19
16 -67 45 -108 65 -67 32 -83 36 -181 40 -163 7 -257 -27 -367 -131 -130 -123
-184 -289 -149 -457 20 -94 55 -166 110 -227 l44 -48 -33 -65 c-85 -170 -145
-366 -171 -560 -54 -411 64 -910 297 -1250 73 -107 211 -255 302 -325 36 -27
66 -53 66 -57 1 -4 -378 -8 -841 -8 -832 0 -843 0 -885 -21 -111 -54 -162
-204 -106 -312 15 -30 321 -473 653 -947 37 -52 85 -123 108 -157 l42 -62 0
-624 c0 -616 0 -625 21 -651 l20 -26 420 0 c406 0 420 1 439 20 19 19 20 33
20 235 l0 215 59 0 58 0 13 -47 c50 -188 180 -348 326 -402 54 -21 65 -21
1327 -21 1093 0 1290 2 1392 15 137 18 308 56 410 92 114 41 279 131 368 202
141 114 214 217 330 471 145 316 30 1088 -243 1629 -43 87 -205 353 -350 576
-107 165 -238 388 -246 421 -4 15 11 44 49 97 67 93 164 282 205 397 16 47 43
141 58 210 27 116 29 140 28 320 0 185 -2 201 -31 312 -80 302 -259 595 -536
882 -37 38 -67 70 -67 72 0 2 13 25 29 51 189 309 18 731 -338 837 -66 19
-244 20 -311 2z m322 -173 c64 -30 149 -98 168 -134 8 -13 -2 -12 -53 10 -53
22 -76 26 -162 25 -80 0 -111 -5 -155 -23 -76 -31 -151 -90 -188 -148 -35 -54
-72 -152 -72 -190 0 -30 -10 -29 -42 5 -42 44 -68 103 -68 152 0 102 99 239
213 294 80 39 109 45 207 43 71 -3 96 -8 152 -34z m73 -277 c95 -44 142 -123
132 -226 -8 -97 -64 -185 -124 -196 -41 -8 -220 21 -293 48 -85 31 -95 45 -94
131 2 130 68 223 184 258 54 16 143 10 195 -15z m-2860 -371 c58 -16 125 -50
125 -64 0 -4 -19 -23 -41 -41 -39 -31 -44 -32 -75 -21 -132 48 -294 19 -381
-69 -38 -38 -41 -34 -13 20 45 88 126 152 224 176 69 17 92 17 161 -1z m814
-30 c28 -14 53 -55 66 -106 6 -22 1 -30 -27 -47 -35 -22 -95 -81 -122 -122
-23 -35 -20 -77 9 -105 40 -41 70 -33 134 34 67 70 120 92 171 71 49 -20 56
-53 24 -117 -40 -82 -127 -141 -223 -150 -70 -7 -109 -26 -117 -58 -32 -129
161 -139 344 -18 93 62 172 183 172 264 0 33 6 35 171 50 317 29 623 -28 866
-163 363 -201 631 -511 715 -830 20 -72 23 -108 22 -268 0 -172 -2 -191 -28
-275 -101 -332 -370 -602 -831 -835 -296 -150 -400 -179 -741 -202 -184 -12
-269 -5 -504 44 -418 88 -752 315 -923 628 -110 200 -170 497 -147 723 29 284
130 499 329 698 104 103 164 146 311 224 115 61 122 72 107 170 -12 86 3 218
33 279 11 23 34 57 52 75 51 52 88 62 137 36z m-916 -231 c4 -4 -23 -39 -60
-78 -36 -39 -86 -100 -111 -135 -43 -61 -46 -62 -55 -40 -14 37 0 118 27 159
14 21 41 48 61 60 49 30 123 48 138 34z m1740 -2796 c-5 -7 -38 -51 -73 -98
-35 -47 -66 -89 -70 -93 -4 -5 -42 34 -85 85 l-78 93 114 7 c63 4 125 9 139
11 54 8 63 7 53 -5z m-1298 -70 c30 -14 31 -18 5 -68 l-20 -40 -988 2 c-947 3
-987 4 -990 21 -6 28 17 73 41 85 33 16 1917 16 1952 0z m1598 -311 c17 -51
18 -50 -31 -60 -17 -4 -26 1 -38 25 -15 28 -14 31 12 65 14 19 30 31 34 26 4
-4 14 -30 23 -56z m-772 -140 c-6 -14 -18 -77 -27 -139 -9 -62 -20 -117 -26
-123 -14 -14 -48 31 -48 64 0 24 23 186 36 260 l7 33 34 -34 c30 -30 33 -37
24 -61z m-1680 -10 c19 -12 43 -39 54 -59 53 -99 -73 -123 -134 -25 -52 84 0
138 80 84z m183 3 c31 -11 66 -65 66 -99 0 -83 -111 -79 -146 5 -19 45 -18 60
6 84 22 22 37 24 74 10z m2599 -55 c88 -15 185 -57 259 -112 132 -97 245 -301
277 -500 9 -62 18 -56 -124 -78 -112 -17 -772 -40 -950 -32 -159 6 -219 36
-251 124 -18 51 -17 126 1 198 71 274 442 462 788 400z m-2376 -70 c29 -29 34
-40 31 -72 -2 -28 -9 -41 -30 -52 -24 -14 -30 -14 -63 2 -23 11 -41 29 -51 52
-19 46 -18 61 6 85 30 30 67 25 107 -15z m-517 -15 c17 -12 37 -35 46 -51 42
-82 -54 -107 -131 -34 -27 25 -35 40 -35 68 0 19 6 38 13 41 22 10 77 -2 107
-24z m336 -80 c59 -29 148 -115 158 -153 9 -38 -11 -76 -54 -101 -26 -16 -51
-20 -105 -19 -193 3 -312 135 -223 248 46 59 133 69 224 25z m3414 -924 c270
-153 721 -379 790 -397 l49 -12 -29 -41 c-68 -99 -221 -221 -353 -280 -198
-90 -404 -135 -684 -151 l-123 -7 0 509 c0 281 2 512 5 515 3 2 31 1 62 -2 50
-6 91 -26 283 -134z m-2050 -501 l0 -385 -155 0 -155 0 0 219 0 220 -26 20
c-26 21 -35 21 -646 21 l-619 0 -24 -25 c-25 -24 -25 -24 -25 -240 l0 -215
-125 0 -125 0 0 385 0 385 950 0 950 0 0 -385z m-460 -209 c0 -163 -1 -165
-75 -174 -117 -13 -249 100 -304 261 l-20 57 200 0 199 0 0 -144z m1290 12
l-1 -133 -41 45 c-40 44 -90 137 -104 193 l-6 27 76 0 76 0 0 -132z m-260 -48
c12 -25 36 -64 51 -87 16 -23 29 -44 29 -47 0 -3 -27 -6 -60 -6 l-60 0 1 118
c0 70 4 107 8 92 5 -14 18 -45 31 -70z"/>
<path d="M3959 4897 c-124 -47 -188 -135 -188 -262 -1 -105 69 -211 164 -251
56 -23 159 -22 215 3 160 70 212 289 101 424 -64 78 -204 119 -292 86z m71
-277 c11 -11 20 -33 20 -50 0 -17 -9 -39 -20 -50 -11 -11 -33 -20 -50 -20 -17
0 -39 9 -50 20 -11 11 -20 33 -20 50 0 17 9 39 20 50 11 11 33 20 50 20 17 0
39 -9 50 -20z"/>
<path d="M2375 4598 c-88 -31 -145 -119 -145 -225 0 -101 45 -178 125 -214
140 -64 285 46 285 217 0 108 -62 198 -155 223 -48 13 -70 13 -110 -1z m162
-217 c28 -36 1 -101 -41 -101 -27 0 -42 15 -51 52 -5 21 -1 33 18 52 27 27 51
26 74 -3z"/>
<path d="M3105 4375 c-130 -28 -195 -79 -195 -153 0 -75 62 -150 142 -174 49
-14 58 -23 58 -60 0 -41 -38 -78 -87 -85 -37 -5 -47 -2 -78 26 -20 17 -47 31
-61 31 -32 0 -74 -42 -74 -73 0 -38 41 -90 90 -115 38 -20 56 -23 120 -19 85
4 142 28 182 76 l25 29 59 -20 c86 -29 182 -23 260 17 132 68 187 227 92 266
-39 16 -77 -2 -96 -46 -36 -81 -63 -100 -145 -100 -72 1 -124 24 -133 59 -5
20 4 34 49 77 40 39 58 66 67 98 20 74 -4 146 -56 169 -33 15 -143 14 -219 -3z"/>
</g>
</svg>
