<svg xmlns="http://www.w3.org/2000/svg" xmlns:xlink="http://www.w3.org/1999/xlink" width="384" height="384" shape-rendering="geometricPrecision" image-rendering="optimizeQuality" fill-rule="evenodd" xmlns:v="https://vecta.io/nano"><path fill="#020101" d="M114.5-.5h20c11.927 3.797 22.927 9.464 33 17 4.094 3.917 8.428 7.75 13 11.5 2.428.747 4.094-.086 5-2.5 13.558-11.78 28.891-20.446 46-26h16c9.454 3.88 11.454 10.213 6 19-.667 0-1 .333-1 1-7.905 7.097-14.905 15.097-21 24l22 5c9.167 2.747 16.833 7.747 23 15 1.897 3.447 4.063 6.78 6.5 10 2.397 4.123 4.23 8.457 5.5 13-.788 4.448-3.121 7.782-7 10-2.267-.355-3.601-.021-4 1 .011 1.517.677 2.684 2 3.5 41.884 30.648 55.718 71.148 41.5 121.5-13.827 50.848-39.327 94.681-76.5 131.5-12.478 10.891-26.145 19.725-41 26.5-3.132.86-6.132 1.86-9 3h-27c-24.532-7.361-45.365-20.694-62.5-40-37.238-41.816-60.572-90.483-70-146-2.386-37.518 10.781-68.352 39.5-92.5 3.844-2.422 7.51-5.089 11-8-10.671-1.844-13.505-7.677-8.5-17.5 8.929-14.251 21.429-24.084 37.5-29.5l18-5L108 14.5c-2.201-6.898-.034-11.898 6.5-15zm29 27a106.09 106.09 0 0 1 25 17c3.697 4.883 7.03 10.05 10 15.5-6.957 1.245-13.957 2.078-21 2.5 1.691-3.145 2.191-6.479 1.5-10-4.203-9.014-9.37-17.347-15.5-25zm66 16a11.1 11.1 0 0 1-6-5c4.836-4.013 10.003-7.68 15.5-11 .667.667.667 1.333 0 2-3.919 4.176-7.086 8.843-9.5 14zm-62 22c-7.297 2.981-13.964 6.981-20 12-24.914 2.291-25.914-.543-3-8.5a147.45 147.45 0 0 1 23-3.5zm-3 29h10c-23.857 8.679-44.024 22.679-60.5 42-17.82 23.757-23.653 50.257-17.5 79.5 13.084 55.354 39.75 102.854 80 142.5-7.959-3.454-15.292-7.954-22-13.5-45.49-42.979-72.157-95.645-80-158 1.222-28.447 13.222-51.114 36-68 16.184-12.119 34.184-20.286 54-24.5z" opacity=".951"/><path fill="#7fbaa1" d="M253.5 48.5l-22-5c6.095-8.903 13.095-16.903 21-24 .667 0 1-.333 1-1 8.205-3.08 16.538-3.58 25-1.5-8.547 10.375-16.881 20.875-25 31.5z" opacity=".93"/><path fill="#77ae97" d="M167.5 16.5c6.283 2.475 12.283 5.475 18 9-.906 2.414-2.572 3.247-5 2.5-4.572-3.75-8.906-7.583-13-11.5z" opacity=".718"/><path fill="#7db79f" d="M203.5 37.5a11.1 11.1 0 0 0 6 5c-1.73 3.642-3.064 7.475-4 11.5.433 5.6 3.433 8.767 9 9.5 18.285-3.486 34.285.847 48 13-9.486.994-19.152 1.327-29 1a598.97 598.97 0 0 0-53-10c-17.397 2.081-34.564 5.415-51.5 10-.765-.07-1.265-.403-1.5-1 6.036-5.019 12.703-9.019 20-12 3.662-.223 6.995-1.223 10-3 7.043-.422 14.043-1.255 21-2.5-2.97-5.45-6.303-10.617-10-15.5.739-.131 1.406.036 2 .5l8 9c2 .667 4 .667 6 0a171.21 171.21 0 0 1 16-15 4.93 4.93 0 0 1 3-.5z" opacity=".965"/><path fill="#7fbaa1" d="M276.5 63.5c16.183 5.516 27.516 16.183 34 32a211.12 211.12 0 0 1-29 1c3.879-2.218 6.212-5.552 7-10-1.27-4.543-3.103-8.877-5.5-13-2.437-3.22-4.603-6.553-6.5-10z" opacity=".902"/><path fill="#364e43" d="M262.5 76.5c.543.06.876.393 1 1-10.159 1.323-20.159 1.323-30 0 9.848.327 19.514-.006 29-1z"/><path fill="#74a48f" d="M180.5 88.5c-8.608 1.922-17.275 3.588-26 5h-10c7.07-2.355 14.403-4.189 22-5.5 4.852-.815 9.519-.648 14 .5z" opacity=".89"/><path fill="#e36976" d="M180.5 88.5c36.302-.067 68.636 11.1 97 33.5 23.349 20.211 33.182 45.711 29.5 76.5-10.681 57.536-37.181 106.37-79.5 146.5-13.621 11.892-29.454 18.726-47.5 20.5-7.547.196-14.381-1.804-20.5-6 0-.667-.333-1-1-1-.342-.838-1.008-1.172-2-1-40.25-39.646-66.916-87.146-80-142.5-6.153-29.243-.32-55.743 17.5-79.5 16.476-19.321 36.643-33.321 60.5-42 8.725-1.412 17.392-3.078 26-5z" opacity=".996"/><path fill="#e26875" d="M277.5 97.5c26.566 11.064 47.066 29.064 61.5 54 8.749 18.495 11.416 37.828 8 58-10.665 50.663-32.998 95.33-67 134a148.28 148.28 0 0 1-43.5 32.5c-10.736 4.725-21.736 6.225-33 4.5 14.855-6.775 28.522-15.609 41-26.5 37.173-36.819 62.673-80.652 76.5-131.5 14.218-50.352.384-90.852-41.5-121.5-1.323-.816-1.989-1.983-2-3.5z" opacity=".962"/><path fill="#0b0405" d="M113.5 123.5c12.833-1.027 16.999 4.306 12.5 16-5.842 5.66-11.176 5.326-16-1-2.835-6.036-1.668-11.036 3.5-15z"/><g fill="#0c0505"><path d="M174.5 123.5c12.466-.73 16.632 4.604 12.5 16-6.536 5.852-12.203 5.186-17-2a20.49 20.49 0 0 1 0-9c1.193-1.997 2.693-3.664 4.5-5zm61 0c12.873-.308 16.707 5.359 11.5 17-11.333 5.353-16.999 1.686-17-11 1.36-2.523 3.193-4.523 5.5-6z"/><use xlink:href="#B"/></g><use xlink:href="#C" fill="#0a0404"/><path fill="#0b0404" d="M208.5 167.5c10.542-.961 15.042 3.706 13.5 14-2.919 5.525-7.419 7.358-13.5 5.5-7.945-6.497-7.945-12.997 0-19.5z"/><g fill="#0b0405"><path d="M269.5 167.5c12.849-.288 16.682 5.379 11.5 17-11.848 5.909-17.514 2.242-17-11 1.36-2.523 3.193-4.523 5.5-6zm-155 47c12.139.28 15.972 5.946 11.5 17-11.874 6.14-17.541 2.473-17-11 1.36-2.523 3.193-4.523 5.5-6z"/><use xlink:href="#D"/></g><g fill="#0c0505"><path d="M236.5 214.5c10.036-.468 14.202 4.199 12.5 14-2.919 5.525-7.419 7.358-13.5 5.5-8.213-6.904-7.879-13.404 1-19.5z"/><use xlink:href="#B" x="54" y="108"/></g><use xlink:href="#C" x="54" y="108" fill="#0a0404"/><use xlink:href="#D" y="108" fill="#0b0405"/><defs ><path id="B" d="M87.5 167.5a32.46 32.46 0 0 1 8 .5c8 6.333 8 12.667 0 19-10.48 1.52-14.98-2.98-13.5-13.5 1.36-2.523 3.193-4.523 5.5-6z"/><path id="C" d="M148.5 167.5c8.863-.628 13.363 3.372 13.5 12-2.614 6.657-7.447 9.157-14.5 7.5-6.969-7.055-6.636-13.555 1-19.5z"/><path id="D" d="M175.5 214.5c10.751-.105 14.917 4.895 12.5 15-6.573 7.006-12.573 6.672-18-1-1.732-6.186.101-10.853 5.5-14z"/></defs></svg>